<svg xmlns="http://www.w3.org/2000/svg" xmlns:xlink="http://www.w3.org/1999/xlink" version="1.1" id="Layer_1" x="0px" y="0px" xml:space="preserve" viewBox="109.41 265.58 775.1 264.4">
<g>
	<g>
		<g>
			<path fill="#313CFF" d="M524.434,266.495c38.857,0.004,77.714-0.08,116.571,0.089c7.783,0.034,15.702,0.138,23.244,2.423     c12.312,3.73,22.544,10.135,26.891,23.16c2.177,6.523,2.638,13.268,2.081,20.112c-0.683,8.389-1.913,16.711-3.577,24.941     c-3.088,15.274-6.367,30.518-12.002,45.122c-5.987,15.518-16.044,27.473-31.219,34.607c-7.915,3.721-16.484,5.12-25.216,5.592     c-28.039,1.513-59.903,0.419-87.951,0.753L521.62,479.14c-39.162,0.009-93.801,0.017-132.963,0.025     c0,0,15.191-1.894,22.418-3.816c8.884-2.362,16.862-6.519,24.336-11.813c11.782-8.344,19.359-19.91,25.497-32.643     c4.519-9.375,7.798-19.215,10.561-29.196c2.191-7.912,3.688-16.016,5.472-24.039c1.822-8.191,3.781-16.355,5.388-24.588     c2.57-13.162,4.94-26.414,3.84-39.887c-1.526-18.697-11.022-32.005-28.188-39.746c-4.794-2.162-25.047-6.959-25.047-6.959     C446.104,266.47,511.352,266.494,524.434,266.495z M600.246,370.224c8.908-0.093,17.085-5.95,19.271-14.498     c1.762-6.889,3.327-13.816,4.51-20.811c1.137-6.72-0.533-10.395-5.37-12.9c-3.589-1.858-7.589-2.264-11.516-2.296     c-25.654,0-52.515-0.022-52.515-0.022c-1.128,5.708-10.784,50.639-10.784,50.639C552.875,370.269,595.861,370.27,600.246,370.224     z"/>
			<path fill="#313CFF" d="M234.082,266.497c31.844,0,67.284-0.001,99.127,0.002l-11.574,54.637l-64.44-0.014     c0,0-16.999,79.636-18.959,89.976c-1.541,8.13-7.706,32.71,4.774,47.189c5.48,5.718,11.915,10.322,19.16,13.62     c12.019,5.471,27.507,7.233,27.507,7.233c-37.352,0.001-98.72-0.032-136.072-0.035c0,0,0,0,0.982-4.321     c1.326-5.835,32.907-153.609,32.907-153.609s-47.625,0.029-64.408,0.03l11.96-54.694     C166.374,266.48,202.755,266.496,234.082,266.497z"/>
			<g>
				<path fill="#313CFF" d="M805.191,351.468c61.328,4.481,75.05,12.322,64.688,60.488c-7.28,34.725-13.161,68.888-105.573,68.888      c-53.488,0-88.772-1.119-74.21-70.008h53.767c-4.761,21.844,2.8,24.084,30.244,24.084c26.323,0,35.284-1.681,38.925-19.323      c3.921-18.203,0.84-17.922-25.203-19.603l-12.043-0.84c-50.966-3.641-81.491-3.36-68.608-63.568      c12.881-60.209,47.606-64.129,102.493-64.129c45.926,0,84.851,0.84,72.53,58.807l-1.96,8.682h-53.767      c4.761-21.563-4.2-21.563-26.603-21.563c-30.244,0-34.165,6.16-36.685,17.922c-3.641,16.802,4.481,17.362,19.043,18.483      L805.191,351.468z"/>
			</g>
		</g>
		<g>
			<path fill="#662483" d="M118.194,522.398h-6.506l3.969-18.738h-6.246l1.204-5.66h19.324l-1.204,5.66h-6.571L118.194,522.398z"/>
			<path fill="#662483" d="M135.174,508.508h0.228c0.716-1.367,1.497-2.213,2.44-2.7c0.976-0.521,2.082-0.684,3.383-0.684     c3.774,0,5.107,1.789,4.327,5.466l-2.505,11.809h-5.595l2.245-10.508c0.292-1.659,0.033-2.473-1.79-2.473     c-2.505,0-3.253,1.497-3.708,3.579l-1.984,9.401h-5.595L131.791,498h5.595L135.174,508.508z"/>
			<path fill="#662483" d="M158.01,511.956c0.26-1.204,0.618-2.538-0.911-2.538c-1.691,0-2.375,1.334-2.667,2.733l-2.18,10.247     h-5.595l3.644-17.079h5.433l-0.553,2.505h0.228c0.618-0.976,1.301-1.659,2.114-2.082c0.813-0.423,1.725-0.618,2.766-0.618     c3.904,0,3.546,3.188,2.895,6.312l-0.292,1.334h-5.042L158.01,511.956z"/>
			<path fill="#662483" d="M168.191,522.398h-5.595l3.644-17.079h5.595L168.191,522.398z M172.453,502.294h-5.595l0.911-4.294h5.596     L172.453,502.294z"/>
			<path fill="#662483" d="M182.83,522.398h-8.784l-1.073-17.079h5.855l0.228,13.338h0.163l5.66-13.338h5.791L182.83,522.398z"/>
			<path fill="#662483" d="M193.792,522.398h-5.595l3.644-17.079h5.595L193.792,522.398z M198.054,502.294h-5.595l0.911-4.294h5.596     L198.054,502.294z"/>
			<path fill="#662483" d="M206.251,505.319l-0.683,3.188h0.228c0.716-1.367,1.497-2.213,2.44-2.7     c0.976-0.521,2.082-0.684,3.383-0.684c3.774,0,5.107,1.789,4.327,5.466l-2.505,11.809h-5.595l2.245-10.508     c0.292-1.659,0.033-2.473-1.79-2.473c-2.505,0-3.253,1.497-3.708,3.579l-1.984,9.401h-5.595l3.644-17.079H206.251z"/>
			<path fill="#662483" d="M222.093,523.928c-0.195,0.943-0.033,1.464,0.423,1.724c0.39,0.228,1.008,0.261,1.659,0.261     c2.407,0,3.025-0.391,3.513-2.766l0.748-3.546h-0.195c-0.585,1.041-1.367,1.757-2.245,2.18c-0.911,0.455-1.919,0.618-2.993,0.618     c-6.051,0-5.791-3.676-4.75-8.523c1.171-5.53,2.538-8.751,8.426-8.751c2.407,0,4.034,0.586,4.164,3.221h0.195l0.456-3.025h5.596     l-3.481,16.331c-1.366,6.376-3.546,8.328-10.117,8.328c-6.051,0-7.645-0.65-6.702-6.051H222.093z M229.672,513.875     c0.813-3.871,0.325-4.457-2.017-4.457c-2.603,0-2.993,0.521-3.807,4.457c-0.748,3.514-0.455,4.229,1.952,4.229     C228.534,518.104,229.054,516.803,229.672,513.875z"/>
			<path fill="#662483" d="M249.937,513.647l1.464-6.896c1.594-7.515,6.604-8.946,13.208-8.946s10.963,1.432,9.369,8.946     l-1.464,6.896c-1.594,7.515-6.571,8.946-13.175,8.946S248.343,521.162,249.937,513.647z M265.975,512.932l1.171-5.498     c0.748-3.61-0.358-3.969-3.741-3.969s-4.587,0.358-5.433,3.969l-1.171,5.498c-0.683,3.644,0.358,4.002,3.741,4.002     S265.194,516.575,265.975,512.932z"/>
			<path fill="#662483" d="M284.354,522.398l0.878-3.286h-0.26c-1.333,2.636-3.448,3.481-5.823,3.481     c-3.383,0-5.498-1.432-4.619-5.596l2.505-11.679h5.595l-2.179,10.183c-0.326,1.562-0.423,2.798,1.464,2.798     c1.496,0,3.318-0.781,3.676-2.473l2.245-10.508h5.596l-3.644,17.079H284.354z"/>
			<path fill="#662483" d="M309.109,509.418h-6.474l-1.626,7.646c-0.195,1.008-0.065,1.431,0.976,1.431     c1.464,0,1.594-1.041,1.919-2.212l0.228-0.911h4.457l-0.326,1.529c-0.976,4.652-2.928,5.693-7.482,5.693     c-3.579,0-6.441-0.455-5.531-4.75l1.79-8.426h-2.082l0.878-4.099h2.082l0.748-3.611h5.596l-0.749,3.611h6.474L309.109,509.418z"/>
			<path fill="#662483" d="M315.029,522.398h-5.595L314.606,498h5.596L315.029,522.398z"/>
			<path fill="#662483" d="M336.922,513.875c-1.496,7.027-3.318,8.719-10.41,8.719c-6.994,0-8.133-1.887-6.669-8.719     c1.464-6.994,3.253-8.751,10.378-8.751C337.377,505.124,338.451,506.653,336.922,513.875z M325.438,513.875     c-0.813,3.709-0.618,4.425,2.082,4.425c2.603,0,2.993-0.716,3.806-4.425c0.781-3.709,0.683-4.457-1.919-4.457     C326.707,509.418,326.219,510.166,325.438,513.875z"/>
			<path fill="#662483" d="M356.211,513.875c-1.496,7.027-3.318,8.719-10.41,8.719c-6.994,0-8.133-1.887-6.669-8.719     c1.464-6.994,3.253-8.751,10.378-8.751C356.667,505.124,357.741,506.653,356.211,513.875z M344.728,513.875     c-0.813,3.709-0.618,4.425,2.082,4.425c2.603,0,2.993-0.716,3.806-4.425c0.781-3.709,0.683-4.457-1.919-4.457     C345.997,509.418,345.509,510.166,344.728,513.875z"/>
			<path fill="#662483" d="M365.157,511.729h0.976l4.75-6.409h6.148l-6.571,8.198l4.034,8.881h-6.539l-2.635-6.93h-0.976     l-1.464,6.93h-5.596L362.457,498h5.595L365.157,511.729z"/>
			<path fill="#662483" d="M401.524,509.418h-3.806l-2.765,12.98h-5.595l2.765-12.98h-2.245l0.878-4.099h2.245l0.325-1.659     c0.976-4.489,2.96-5.726,10.377-5.66l-0.878,4.262c-0.325-0.098-0.65-0.163-1.008-0.163c-2.472,0-2.635,0.455-3.09,2.603     l-0.13,0.618h3.806L401.524,509.418z"/>
			<path fill="#662483" d="M419.253,513.875c-1.496,7.027-3.318,8.719-10.41,8.719c-6.994,0-8.133-1.887-6.669-8.719     c1.464-6.994,3.253-8.751,10.378-8.751C419.709,505.124,420.783,506.653,419.253,513.875z M407.77,513.875     c-0.813,3.709-0.618,4.425,2.082,4.425c2.603,0,2.993-0.716,3.806-4.425c0.781-3.709,0.683-4.457-1.919-4.457     C409.039,509.418,408.551,510.166,407.77,513.875z"/>
			<path fill="#662483" d="M431.647,511.956c0.26-1.204,0.618-2.538-0.911-2.538c-1.691,0-2.375,1.334-2.667,2.733l-2.18,10.247     h-5.595l3.644-17.079h5.433l-0.553,2.505h0.228c0.618-0.976,1.301-1.659,2.114-2.082c0.813-0.423,1.725-0.618,2.766-0.618     c3.904,0,3.546,3.188,2.895,6.312l-0.292,1.334h-5.042L431.647,511.956z"/>
			<path fill="#662483" d="M448.431,522.398L453.604,498h12.264c6.051,0,7.808,2.569,6.441,8.946     c-1.464,6.864-3.481,9.206-10.28,9.206h-5.758l-1.334,6.246H448.431z M461.932,510.492c2.57-0.098,2.993-0.391,3.676-3.546     c0.521-2.505,0.293-3.286-2.245-3.286h-4.457l-1.431,6.832H461.932z"/>
			<path fill="#662483" d="M482.783,511.956c0.26-1.204,0.618-2.538-0.911-2.538c-1.691,0-2.375,1.334-2.667,2.733l-2.18,10.247     h-5.595l3.644-17.079h5.433l-0.553,2.505h0.228c0.618-0.976,1.301-1.659,2.115-2.082c0.813-0.423,1.724-0.618,2.765-0.618     c3.904,0,3.546,3.188,2.895,6.312l-0.292,1.334h-5.042L482.783,511.956z"/>
			<path fill="#662483" d="M506.627,513.875c-1.496,7.027-3.317,8.719-10.41,8.719c-6.994,0-8.133-1.887-6.669-8.719     c1.464-6.994,3.253-8.751,10.378-8.751C507.083,505.124,508.156,506.653,506.627,513.875z M495.144,513.875     c-0.813,3.709-0.618,4.425,2.082,4.425c2.603,0,2.993-0.716,3.807-4.425c0.78-3.709,0.683-4.457-1.92-4.457     C496.412,509.418,495.924,510.166,495.144,513.875z"/>
			<path fill="#662483" d="M520.192,510.166c0.064-0.715-0.228-1.073-0.618-1.269c-0.391-0.162-0.911-0.162-1.367-0.162     c-2.928,0-2.992,0.357-3.221,1.366c-0.162,0.846-0.228,1.432,2.636,1.496c5.758,0.131,8.263,0.456,7.222,5.238     c-1.041,5.01-5.074,5.758-9.564,5.758c-4.424,0-8.393,0.098-7.189-5.53h5.596c-0.195,0.943,0.032,1.431,0.488,1.691     c0.487,0.228,1.171,0.228,1.854,0.228c2.538,0,2.961-0.162,3.254-1.496c0.357-1.691-0.618-1.691-2.57-1.691     c-7.092,0-8.003-1.595-7.287-5.075c1.171-5.498,4.814-5.596,9.564-5.596c3.123,0,7.548,0.032,6.637,4.229l-0.163,0.813H520.192z"/>
			<path fill="#662483" d="M530.146,505.319h5.596l-0.716,2.7h0.261c0.585-1.171,1.333-1.887,2.276-2.31     c0.911-0.456,2.018-0.586,3.221-0.586c4.132,0,6.084,1.757,5.141,6.278l-0.846,3.904c-1.106,5.205-3.318,7.287-8.003,7.287     c-2.05,0-3.774-0.423-4.164-2.766h-0.261l-2.114,9.955h-5.596L530.146,505.319z M533.919,513.875     c-0.618,2.863-0.748,4.425,1.854,4.425c2.31,0,3.188-0.554,4.034-4.425c0.684-3.318,0.813-4.457-2.147-4.457     C535.286,509.418,534.668,510.264,533.919,513.875z"/>
			<path fill="#662483" d="M563.685,516.705c-0.553,2.57-1.691,4.034-3.351,4.88c-1.627,0.813-3.741,1.009-6.214,1.009     c-6.733,0-7.872-2.343-6.506-8.719c1.398-6.571,3.351-8.751,10.215-8.751c6.409,0,7.938,1.789,6.474,8.751l-0.195,0.943h-11.093     c-0.651,2.993-0.391,3.871,1.919,3.871c1.725,0,2.896-0.195,3.253-1.984H563.685z M559.163,511.729     c0.521-2.538-0.391-2.7-2.277-2.7c-1.984,0-2.7,0.455-3.221,2.7H559.163z"/>
			<path fill="#662483" d="M576.599,511.956c0.26-1.204,0.618-2.538-0.911-2.538c-1.691,0-2.375,1.334-2.667,2.733l-2.18,10.247     h-5.596l3.644-17.079h5.433l-0.553,2.505h0.228c0.618-0.976,1.301-1.659,2.114-2.082s1.725-0.618,2.766-0.618     c3.903,0,3.546,3.188,2.896,6.312l-0.293,1.334h-5.043L576.599,511.956z"/>
			<path fill="#662483" d="M586.779,522.398h-5.596l3.644-17.079h5.596L586.779,522.398z M591.041,502.294h-5.596l0.911-4.294h5.596     L591.041,502.294z"/>
			<path fill="#662483" d="M599.238,505.319l-0.684,3.188h0.228c0.716-1.367,1.497-2.213,2.44-2.7     c0.976-0.521,2.082-0.684,3.383-0.684c3.773,0,5.107,1.789,4.327,5.466l-2.505,11.809h-5.596l2.244-10.508     c0.293-1.659,0.033-2.473-1.789-2.473c-2.505,0-3.253,1.497-3.708,3.579l-1.984,9.401h-5.596l3.644-17.079H599.238z"/>
			<path fill="#662483" d="M615.079,523.928c-0.195,0.943-0.032,1.464,0.423,1.724c0.391,0.228,1.009,0.261,1.659,0.261     c2.407,0,3.025-0.391,3.514-2.766l0.748-3.546h-0.195c-0.585,1.041-1.366,1.757-2.244,2.18c-0.911,0.455-1.92,0.618-2.993,0.618     c-6.051,0-5.791-3.676-4.75-8.523c1.172-5.53,2.538-8.751,8.426-8.751c2.408,0,4.034,0.586,4.164,3.221h0.195l0.456-3.025h5.595     l-3.48,16.331c-1.366,6.376-3.546,8.328-10.117,8.328c-6.051,0-7.646-0.65-6.702-6.051H615.079z M622.659,513.875     c0.813-3.871,0.325-4.457-2.017-4.457c-2.603,0-2.993,0.521-3.807,4.457c-0.748,3.514-0.455,4.229,1.952,4.229     C621.521,518.104,622.041,516.803,622.659,513.875z"/>
			<path fill="#662483" d="M656.263,507.564c7.125,0.52,8.719,1.431,7.515,7.026c-0.846,4.034-1.528,8.003-12.264,8.003     c-6.214,0-10.313-0.13-8.621-8.133h6.246c-0.553,2.537,0.325,2.798,3.514,2.798c3.058,0,4.099-0.195,4.521-2.245     c0.455-2.114,0.098-2.082-2.928-2.277l-1.399-0.098c-5.92-0.423-9.466-0.391-7.97-7.385s5.53-7.449,11.906-7.449     c5.336,0,9.857,0.098,8.426,6.831l-0.228,1.009h-6.246c0.553-2.505-0.488-2.505-3.091-2.505c-3.513,0-3.969,0.716-4.262,2.082     c-0.423,1.952,0.521,2.017,2.213,2.147L656.263,507.564z"/>
			<path fill="#662483" d="M682.156,516.705c-0.553,2.57-1.691,4.034-3.351,4.88c-1.627,0.813-3.741,1.009-6.214,1.009     c-6.733,0-7.872-2.343-6.506-8.719c1.398-6.571,3.351-8.751,10.215-8.751c6.409,0,7.938,1.789,6.474,8.751l-0.195,0.943h-11.093     c-0.65,2.993-0.391,3.871,1.919,3.871c1.725,0,2.896-0.195,3.253-1.984H682.156z M677.635,511.729     c0.521-2.538-0.391-2.7-2.277-2.7c-1.984,0-2.7,0.455-3.221,2.7H677.635z"/>
			<path fill="#662483" d="M693.054,505.319l-0.684,3.188h0.228c0.716-1.367,1.497-2.213,2.44-2.7     c0.976-0.521,2.082-0.684,3.383-0.684c3.773,0,5.107,1.789,4.327,5.466l-2.505,11.809h-5.596l2.244-10.508     c0.293-1.659,0.033-2.473-1.789-2.473c-2.505,0-3.253,1.497-3.708,3.579l-1.984,9.401h-5.596l3.644-17.079H693.054z"/>
			<path fill="#662483" d="M709.09,522.398h-5.596l3.644-17.079h5.596L709.09,522.398z M713.352,502.294h-5.596l0.911-4.294h5.596     L713.352,502.294z"/>
			<path fill="#662483" d="M730.462,513.875c-1.496,7.027-3.318,8.719-10.41,8.719c-6.994,0-8.133-1.887-6.669-8.719     c1.464-6.994,3.253-8.751,10.378-8.751C730.918,505.124,731.991,506.653,730.462,513.875z M718.979,513.875     c-0.813,3.709-0.618,4.425,2.082,4.425c2.603,0,2.993-0.716,3.806-4.425c0.781-3.709,0.684-4.457-1.919-4.457     C720.247,509.418,719.759,510.166,718.979,513.875z"/>
			<path fill="#662483" d="M742.855,511.956c0.26-1.204,0.618-2.538-0.911-2.538c-1.691,0-2.375,1.334-2.667,2.733l-2.18,10.247     h-5.596l3.644-17.079h5.433l-0.553,2.505h0.228c0.618-0.976,1.301-1.659,2.114-2.082s1.725-0.618,2.766-0.618     c3.903,0,3.546,3.188,2.896,6.312l-0.293,1.334h-5.043L742.855,511.956z"/>
			<path fill="#662483" d="M760.323,510.166c0.065-0.715-0.228-1.073-0.618-1.269c-0.391-0.162-0.91-0.162-1.366-0.162     c-2.928,0-2.993,0.357-3.221,1.366c-0.162,0.846-0.228,1.432,2.636,1.496c5.758,0.131,8.263,0.456,7.222,5.238     c-1.041,5.01-5.075,5.758-9.564,5.758c-4.425,0-8.394,0.098-7.189-5.53h5.596c-0.195,0.943,0.032,1.431,0.487,1.691     c0.488,0.228,1.172,0.228,1.854,0.228c2.538,0,2.961-0.162,3.253-1.496c0.358-1.691-0.617-1.691-2.569-1.691     c-7.092,0-8.003-1.595-7.287-5.075c1.171-5.498,4.814-5.596,9.564-5.596c3.123,0,7.547,0.032,6.636,4.229l-0.162,0.813H760.323z"/>
			<path fill="#662483" d="M774.377,516.934l-1.172,5.465c-0.618,3.351-2.114,4.652-6.571,4.619l0.521-2.439     c1.854-0.032,2.44-0.553,2.798-2.18h-2.017l1.171-5.465H774.377z"/>
			<path fill="#662483" d="M796.788,522.398h-6.507L795.454,498h6.507L796.788,522.398z"/>
			<path fill="#662483" d="M809.898,505.319l-0.684,3.188h0.228c0.716-1.367,1.497-2.213,2.44-2.7     c0.976-0.521,2.082-0.684,3.383-0.684c3.773,0,5.107,1.789,4.327,5.466l-2.505,11.809h-5.596l2.244-10.508     c0.293-1.659,0.033-2.473-1.789-2.473c-2.505,0-3.253,1.497-3.708,3.579l-1.984,9.401h-5.596l3.644-17.079H809.898z"/>
			<path fill="#662483" d="M837.842,515.566c-0.684,3.188-1.627,4.945-3.156,5.889c-1.496,0.976-3.578,1.139-6.604,1.139     c-6.604,0-7.743-1.984-6.312-8.719c1.236-5.791,3.025-8.751,10.02-8.751c4.913,0,8.134,0.521,6.864,6.604h-5.595     c0.228-0.911,0.228-1.465-0.065-1.822c-0.325-0.357-0.943-0.488-2.114-0.488c-1.984,0-2.7,0.554-3.514,4.457     c-0.846,4.002-0.488,4.425,1.627,4.425c2.537,0,2.797-0.618,3.253-2.733H837.842z"/>
			<path fill="#662483" d="M845.257,522.398h-5.271l1.204-5.66h5.27L845.257,522.398z"/>
		</g>
	</g>
	<g>
		<path fill="#313CFF" d="M375.453,332.762c-20.222-3.733-37.845-0.103-39.36,8.107c-1.516,8.21,13.649,17.892,33.872,21.625    c20.222,3.733,37.845,0.103,39.36-8.107C410.841,346.177,395.676,336.495,375.453,332.762z M370.875,358.611    c-16.147-2.98-28.579-8.955-27.769-13.344c0.81-4.389,14.556-5.531,30.703-2.551c16.147,2.98,28.579,8.955,27.769,13.344    C400.767,360.449,387.021,361.591,370.875,358.611z"/>
		<path fill="#662483" d="M372.709,347.628c-37.074-6.844-69.049-1.992-71.417,10.836c-2.368,12.828,25.767,28.775,62.842,35.619    s69.049,1.992,71.417-10.836C437.919,370.419,409.784,354.472,372.709,347.628z M365.128,387.107    c-32.215-5.947-57.177-17.014-55.755-24.72c1.422-7.706,28.691-9.132,60.906-3.186s57.177,17.014,55.755,24.72    C424.612,391.627,397.343,393.054,365.128,387.107z"/>
		<path fill="#313CFF" d="M368.793,368.845c-50.582-9.337-93.81-4.865-96.552,9.989c-2.742,14.854,36.041,34.464,86.623,43.801    s93.81,4.865,96.552-9.989C458.157,397.793,419.375,378.182,368.793,368.845z M359.324,417.974    c-43.952-8.113-78.122-22.6-76.321-32.358c1.801-9.758,38.892-11.091,82.844-2.978s78.122,22.6,76.321,32.358    C440.366,424.753,403.276,426.087,359.324,417.974z"/>
		<path fill="#662483" d="M380.917,265.578l-8.505,51.994c-0.669,3.623-1.226,9.378,1.448,10.041    c2.77,0.686,5.405-5.029,6.074-8.652l13.802-53.382H380.917z"/>
		<path fill="#662483" d="M350.416,478.579l4.311-12.735c0.168-0.911-1.358-1.957-3.408-2.336c-2.051-0.379-3.849,0.053-4.018,0.965    l-1.998,14.106H350.416z"/>
		<path fill="#662483" d="M363.151,399.407c-37.074-6.844-69.049-1.992-71.417,10.836c-2.368,12.828,25.767,28.775,62.842,35.619    c37.074,6.844,69.049,1.992,71.417-10.836C428.361,422.198,400.226,406.251,363.151,399.407z M355.57,438.886    c-32.215-5.947-57.177-17.014-55.755-24.72s28.691-9.132,60.906-3.186c32.215,5.947,57.177,17.014,55.755,24.72    S387.785,444.833,355.57,438.886z"/>
		<path fill="#313CFF" d="M357.475,430.156c-20.222-3.733-37.845-0.103-39.36,8.107c-1.516,8.21,13.649,17.892,33.872,21.625    c20.222,3.733,37.845,0.103,39.36-8.107C392.863,443.571,377.698,433.889,357.475,430.156z M352.897,456.004    c-16.147-2.98-28.579-8.955-27.769-13.344c0.81-4.389,14.556-5.531,30.703-2.551c16.147,2.981,28.579,8.955,27.769,13.344    C382.79,457.843,369.043,458.985,352.897,456.004z"/>
	</g>
</g>
</svg>
